<?xml version="1.0" encoding="UTF-8"?>
<svg width="453px" height="159px" viewBox="0 0 453 159" version="1.1" xmlns="http://www.w3.org/2000/svg" xmlns:xlink="http://www.w3.org/1999/xlink">
    <!-- Generator: Sketch 46.2 (44496) - http://www.bohemiancoding.com/sketch -->
    <title>Group 2</title>
    <desc>Created with Sketch.</desc>
    <defs>
        <linearGradient x1="0%" y1="42.6294982%" x2="103.90777%" y2="42.6294982%" id="linearGradient-1">
            <stop stop-color="#FFED50" offset="0%"></stop>
            <stop stop-color="#FFB040" offset="14.7201849%"></stop>
            <stop stop-color="#FD8331" offset="29.4343909%"></stop>
            <stop stop-color="#FE46E1" offset="46.6830465%"></stop>
            <stop stop-color="#CB5EFC" offset="60.3918059%"></stop>
            <stop stop-color="#00D5F0" offset="77.343294%"></stop>
            <stop stop-color="#0FE6CB" offset="88.3577472%"></stop>
            <stop stop-color="#6DFF6B" offset="100%"></stop>
        </linearGradient>
        <linearGradient x1="0%" y1="91.818034%" x2="124.172692%" y2="20.6688929%" id="linearGradient-2">
            <stop stop-color="#FFA13D" offset="0%"></stop>
            <stop stop-color="#FFA13D" offset="22.5202726%"></stop>
            <stop stop-color="#FF7475" offset="53.9301658%"></stop>
            <stop stop-color="#FF60AD" offset="84.6739477%"></stop>
            <stop stop-color="#FE38F9" offset="100%"></stop>
        </linearGradient>
    </defs>
    <g id="Result" stroke="none" stroke-width="1" fill="none" fill-rule="evenodd">
        <g id="Group-2" transform="translate(0.000000, -43.000000)">
            <path d="M52.4404208,201.746114 C44.6359768,201.746114 37.5080248,200.445393 31.0563511,197.843912 C24.6046774,195.242431 19.0896197,191.496354 14.5110125,186.605569 C9.93240534,181.714784 6.39444379,175.757481 3.8970217,168.733481 C1.39959961,161.709482 0.1509073,153.775083 0.1509073,144.930046 C0.1509073,137.229661 1.37358519,129.945623 3.81897765,123.077712 C6.26437011,116.209801 9.6202307,110.226484 13.8866601,105.127581 C18.1530895,100.028677 23.2779309,95.9964415 29.261338,93.0307527 C35.244745,90.065064 41.8263941,88.5822419 49.0064826,88.5822419 C52.7526157,88.5822419 56.3426061,88.9984727 59.7765615,89.8309467 C63.2105169,90.6634207 66.3322477,91.7560265 69.1418475,93.1087968 C71.9514473,94.4615671 74.448832,95.9964181 76.6340763,97.7133958 C78.8193206,99.4303734 80.5883014,101.17334 81.9410717,102.942347 C82.9816642,104.919473 83.397895,106.636425 83.1897765,108.093254 C82.981658,108.925728 82.5394128,109.628118 81.8630277,110.200444 C81.1866425,110.77277 80.2761377,111.162986 79.1314859,111.371105 C77.8827749,111.683282 76.3479239,111.241037 74.526887,110.044356 C72.70585,108.847674 70.5466529,107.46891 68.0492308,105.908021 C65.5518087,104.347132 62.6902222,102.890324 59.4643853,101.537554 C56.2385484,100.184784 52.5965292,99.5084089 48.5382183,99.5084089 C42.9190186,99.5084089 37.8722205,100.861159 33.3976726,103.5667 C28.9231247,106.27224 25.1250189,109.758173 22.0032413,114.024602 C18.8814637,118.291032 16.4881368,123.155729 14.8231887,128.61884 C13.1582406,134.08195 12.3257791,139.518965 12.3257791,144.930046 C12.3257791,151.589838 13.2362839,157.729242 15.0573208,163.348442 C16.8783578,168.967641 19.5058145,173.832339 22.9397699,177.942679 C26.3737253,182.05302 30.5880618,185.226779 35.582906,187.464053 C40.5777502,189.701327 46.1968656,190.819947 52.4404208,190.819947 C57.435265,190.715888 61.675616,189.831398 65.161601,188.16645 C68.6475859,186.501502 71.8993888,184.31629 74.9171072,181.610749 C77.2064108,179.841742 79.1835069,179.113338 80.848455,179.425516 C82.4093438,179.841753 83.5539784,180.596171 84.2823932,181.688794 C85.010808,182.781416 85.3229811,183.900036 85.2189218,185.044688 C85.1148625,186.189339 84.2043577,187.698176 82.48738,189.571243 C80.7704024,191.444309 78.4291043,193.291333 75.4634156,195.11237 C72.4977268,196.933407 69.0378085,198.494272 65.0835569,199.795013 C61.1293053,201.095754 56.9149687,201.746114 52.4404208,201.746114 Z M102.856877,96.2305588 C102.856877,94.4615515 103.351151,93.0047438 104.339714,91.860092 C105.328277,90.7154402 106.863128,90.1431229 108.944313,90.1431229 C111.025498,90.1431229 112.586363,90.7154402 113.626956,91.860092 C114.667549,93.0047438 115.187837,94.4615515 115.187837,96.2305588 L115.187837,153.827068 C115.187837,159.13409 115.552039,163.998787 116.280454,168.421305 C117.008868,172.843823 118.439662,176.615915 120.572876,179.737692 C122.706091,182.85947 125.645721,185.278811 129.391854,186.995789 C133.137987,188.712767 138.028699,189.571243 144.064136,189.571243 C153.845705,189.571243 161.025686,187.073858 165.604293,182.079014 C170.1829,177.08417 172.47217,170.008247 172.47217,160.851032 L172.47217,96.2305588 C172.47217,94.4615515 172.940429,93.0047438 173.876963,91.860092 C174.813496,90.7154402 176.374361,90.1431229 178.559606,90.1431229 C180.640791,90.1431229 182.175642,90.7154402 183.164205,91.860092 C184.152767,93.0047438 184.647042,94.4615515 184.647042,96.2305588 L184.647042,164.753235 C184.647042,170.372434 183.606465,175.419232 181.52528,179.89378 C179.444094,184.368328 176.582508,188.166434 172.940434,191.288212 C169.29836,194.409989 164.979966,196.803316 159.985122,198.468264 C154.990278,200.133212 149.631306,200.965674 143.908047,200.965674 C138.184788,200.965674 132.825817,200.133212 127.830973,198.468264 C122.836129,196.803316 118.49172,194.409989 114.797617,191.288212 C111.103513,188.166434 108.189898,184.368328 106.056683,179.89378 C103.923468,175.419232 102.856877,170.372434 102.856877,164.753235 L102.856877,96.2305588 Z M204.314142,99.3523208 C204.314142,96.1264839 204.886459,94.0713445 206.031111,93.1868408 C207.175763,92.3023372 209.56909,91.860092 213.211164,91.860092 L238.497436,91.860092 C249.527717,91.860092 257.95639,94.2013901 263.783708,98.8840565 C269.611026,103.566723 272.524642,111.110906 272.524642,121.516831 C272.524642,131.818697 269.506969,139.440923 263.471532,144.383738 C257.436095,149.326552 249.11148,151.797922 238.497436,151.797922 L234.283057,151.797922 L268.622439,185.044688 C269.663032,186.189339 270.65158,187.333974 271.588113,188.478626 C272.524646,189.623278 273.25305,190.767912 273.773347,191.912564 C274.293643,193.057216 274.527773,194.149822 274.475743,195.190414 C274.423713,196.231007 273.981468,197.167526 273.148994,198 C271.796224,199.35277 270.235359,200.05516 268.466351,200.107189 C266.697344,200.159219 265.136478,199.45683 263.783708,198 L218.205983,151.797922 L216.645102,151.797922 L216.645102,193.941709 C216.645102,195.710717 216.150828,197.193539 215.162265,198.39022 C214.173702,199.586902 212.638851,200.185233 210.557666,200.185233 C208.268363,200.185233 206.655468,199.586902 205.718935,198.39022 C204.782402,197.193539 204.314142,195.710717 204.314142,193.941709 L204.314142,99.3523208 Z M216.645102,141.027844 L238.497436,141.027844 C245.677525,141.027844 251.088525,139.519007 254.730598,136.501289 C258.372672,133.48357 260.193682,128.592859 260.193682,121.829007 C260.193682,115.065156 258.294629,110.226473 254.496466,107.312814 C250.698303,104.399155 245.365347,102.942347 238.497436,102.942347 L216.645102,102.942347 L216.645102,141.027844 Z M339.642525,193.785621 C337.873517,198.052051 335.636277,200.185233 332.930736,200.185233 C331.473907,200.185233 330.251229,199.769003 329.262666,198.936529 C328.274103,198.104055 327.207512,196.335074 326.06286,193.629533 L292.972183,98.7279684 C292.139709,96.5427241 291.931593,94.8257721 292.34783,93.5770611 C292.764068,92.3283501 293.856673,91.3918308 295.625681,90.7674753 C299.788051,89.1025272 302.597608,90.5073061 304.054438,94.981854 L333.086825,179.425516 L361.807035,94.6696778 C362.53545,92.5884927 363.576027,91.2877716 364.928797,90.7674753 C366.281567,90.247179 367.686346,90.0910925 369.143176,90.299211 C371.016242,90.5073295 372.368992,91.2357334 373.201466,92.4844444 C374.03394,93.7331554 373.929883,95.7102516 372.88929,98.4157922 L339.642525,193.785621 Z M400.360796,187.854273 L440.475437,187.854273 C442.140385,187.854273 443.727265,187.880288 445.236124,187.932318 C446.744984,187.984347 448.071719,188.166448 449.216371,188.478626 C450.361023,188.790804 451.271528,189.311092 451.947913,190.039507 C452.624298,190.767922 452.962485,191.808499 452.962485,193.161269 C452.962485,195.346513 452.390168,196.803321 451.245516,197.531736 C450.100865,198.26015 448.227826,198.624352 445.626345,198.624352 L395.209888,198.624352 C392.816526,198.624352 391.02153,198.182107 389.824849,197.297604 C388.628168,196.4131 388.029836,194.618105 388.029836,191.912564 L388.029836,98.5718803 C388.029836,96.0744582 388.550124,94.3314919 389.590717,93.3429289 C390.631309,92.354366 392.504348,91.860092 395.209888,91.860092 L444.689816,91.860092 C446.87506,91.860092 448.513969,92.2503083 449.606591,93.0307527 C450.699213,93.8111972 451.297545,95.2419904 451.401604,97.3231755 C451.401604,99.3003013 450.829287,100.679066 449.684635,101.45951 C448.539984,102.239955 446.87506,102.630171 444.689816,102.630171 L400.360796,102.630171 L400.360796,138.06217 L443.128935,138.06217 C445.522298,138.06217 447.23925,138.4784 448.279842,139.310874 C449.320435,140.143348 449.840723,141.600156 449.840723,143.681341 C449.840723,145.658467 449.320435,147.011217 448.279842,147.739632 C447.23925,148.468047 445.522298,148.832248 443.128935,148.832248 L400.360796,148.832248 L400.360796,187.854273 Z" id="CURVE" fill="url(#linearGradient-1)"></path>
            <path d="M99.6339841,105.867684 C99.3802688,95.7937913 100.942383,87.4577248 104.320327,80.8594849 C109.387243,70.9621251 116.999318,61.8911875 131.068817,56.213384 C145.138315,50.5355805 150.356721,53.7852301 165.553159,44.9513807 C180.749597,36.1175314 185.594265,26.2171266 185.840359,22.1797958 C186.004422,19.4882419 185.893639,17.4011667 185.508011,15.9185703 C187.306452,22.4094305 187.811454,28.5704887 187.023016,34.4017447 C185.840359,43.1486288 180.542601,56.6376888 164.511333,66.4815829 C148.480064,76.325477 130.694877,79.3867243 124.428566,80.4799496 C118.162254,81.573175 107.959568,84.7755359 103.796776,94.1344532 C101.021581,100.373731 99.6339841,104.284808 99.6339841,105.867684 Z" id="Path-15" fill="url(#linearGradient-2)" transform="translate(143.495433, 60.893127) rotate(-330.000000) translate(-143.495433, -60.893127) "></path>
        </g>
    </g>
</svg>